TITLE ""
FILE "1Q_t_1110-1118.mp3" MP3
  TRACK 01 AUDIO
    TITLE "1Q_t_1110-1118_01"
    INDEX 01 00:00:00
  TRACK 02 AUDIO
    TITLE "1Q_t_1110-1118_02"
    INDEX 01 00:00:08
  TRACK 03 AUDIO
    TITLE "1Q_t_1110-1118_03"
    INDEX 01 00:01:31
  TRACK 04 AUDIO
    TITLE "1Q_t_1110-1118_04"
    INDEX 01 00:01:39
  TRACK 05 AUDIO
    TITLE "1Q_t_1110-1118_05"
    INDEX 01 00:03:32
  TRACK 06 AUDIO
    TITLE "1Q_t_1110-1118_06"
    INDEX 01 00:03:40
  TRACK 07 AUDIO
    TITLE "1Q_t_1110-1118_07"
    INDEX 01 00:08:24
  TRACK 08 AUDIO
    TITLE "1Q_t_1110-1118_08"
    INDEX 01 00:08:74
  TRACK 09 AUDIO
    TITLE "1Q_t_1110-1118_09"
    INDEX 01 00:09:70
  TRACK 10 AUDIO
    TITLE "1Q_t_1110-1118_10"
    INDEX 01 00:10:05
  TRACK 11 AUDIO
    TITLE "1Q_t_1110-1118_11"
    INDEX 01 00:15:04
  TRACK 12 AUDIO
    TITLE "1Q_t_1110-1118_12"
    INDEX 01 00:15:10
  TRACK 13 AUDIO
    TITLE "1Q_t_1110-1118_13"
    INDEX 01 00:20:50
  TRACK 14 AUDIO
    TITLE "1Q_t_1110-1118_14"
    INDEX 01 00:21:20
  TRACK 15 AUDIO
    TITLE "1Q_t_1110-1118_15"
    INDEX 01 00:22:39
  TRACK 16 AUDIO
    TITLE "1Q_t_1110-1118_16"
    INDEX 01 00:22:45
  TRACK 17 AUDIO
    TITLE "1Q_t_1110-1118_17"
    INDEX 01 00:25:57
  TRACK 18 AUDIO
    TITLE "1Q_t_1110-1118_18"
    INDEX 01 00:25:65
  TRACK 19 AUDIO
    TITLE "1Q_t_1110-1118_19"
    INDEX 01 00:32:01
  TRACK 20 AUDIO
    TITLE "1Q_t_1110-1118_20"
    INDEX 01 00:32:42
  TRACK 21 AUDIO
    TITLE "1Q_t_1110-1118_21"
    INDEX 01 00:33:47
  TRACK 22 AUDIO
    TITLE "1Q_t_1110-1118_22"
    INDEX 01 00:33:55
  TRACK 23 AUDIO
    TITLE "1Q_t_1110-1118_23"
    INDEX 01 00:38:17
  TRACK 24 AUDIO
    TITLE "1Q_t_1110-1118_24"
    INDEX 01 00:38:25
  TRACK 25 AUDIO
    TITLE "1Q_t_1110-1118_25"
    INDEX 01 00:44:19
  TRACK 26 AUDIO
    TITLE "1Q_t_1110-1118_26"
    INDEX 01 00:44:66
  TRACK 27 AUDIO
    TITLE "1Q_t_1110-1118_27"
    INDEX 01 00:46:10
  TRACK 28 AUDIO
    TITLE "1Q_t_1110-1118_28"
    INDEX 01 00:46:20
  TRACK 29 AUDIO
    TITLE "1Q_t_1110-1118_29"
    INDEX 01 00:48:58
  TRACK 30 AUDIO
    TITLE "1Q_t_1110-1118_30"
    INDEX 01 00:48:64
  TRACK 31 AUDIO
    TITLE "1Q_t_1110-1118_31"
    INDEX 01 00:55:07
  TRACK 32 AUDIO
    TITLE "1Q_t_1110-1118_32"
    INDEX 01 00:55:52
  TRACK 33 AUDIO
    TITLE "1Q_t_1110-1118_33"
    INDEX 01 00:56:50
  TRACK 34 AUDIO
    TITLE "1Q_t_1110-1118_34"
    INDEX 01 00:56:58
  TRACK 35 AUDIO
    TITLE "1Q_t_1110-1118_35"
    INDEX 01 01:00:18
  TRACK 36 AUDIO
    TITLE "1Q_t_1110-1118_36"
    INDEX 01 01:00:24
  TRACK 37 AUDIO
    TITLE "1Q_t_1110-1118_37"
    INDEX 01 01:05:67
  TRACK 38 AUDIO
    TITLE "1Q_t_1110-1118_38"
    INDEX 01 01:06:37
  TRACK 39 AUDIO
    TITLE "1Q_t_1110-1118_39"
    INDEX 01 01:07:46
  TRACK 40 AUDIO
    TITLE "1Q_t_1110-1118_40"
    INDEX 01 01:07:54
  TRACK 41 AUDIO
    TITLE "1Q_t_1110-1118_41"
    INDEX 01 01:10:46
  TRACK 42 AUDIO
    TITLE "1Q_t_1110-1118_42"
    INDEX 01 01:10:52
  TRACK 43 AUDIO
    TITLE "1Q_t_1110-1118_43"
    INDEX 01 01:15:59
  TRACK 44 AUDIO
    TITLE "1Q_t_1110-1118_44"
    INDEX 01 01:16:39
  TRACK 45 AUDIO
    TITLE "1Q_t_1110-1118_45"
    INDEX 01 01:17:36
  TRACK 46 AUDIO
    TITLE "1Q_t_1110-1118_46"
    INDEX 01 01:17:46
  TRACK 47 AUDIO
    TITLE "1Q_t_1110-1118_47"
    INDEX 01 01:21:11
  TRACK 48 AUDIO
    TITLE "1Q_t_1110-1118_48"
    INDEX 01 01:21:19
  TRACK 49 AUDIO
    TITLE "1Q_t_1110-1118_49"
    INDEX 01 01:27:05
  TRACK 50 AUDIO
    TITLE "1Q_t_1110-1118_50"
    INDEX 01 01:27:52
  TRACK 51 AUDIO
    TITLE "1Q_t_1110-1118_51"
    INDEX 01 01:28:66
  TRACK 52 AUDIO
    TITLE "1Q_t_1110-1118_52"
    INDEX 01 01:28:73
  TRACK 53 AUDIO
    TITLE "1Q_t_1110-1118_53"
    INDEX 01 01:31:52
  TRACK 54 AUDIO
    TITLE "1Q_t_1110-1118_54"
    INDEX 01 01:31:56
  TRACK 55 AUDIO
    TITLE "1Q_t_1110-1118_55"
    INDEX 01 01:36:61
